<?xml version="1.0" encoding="UTF-8"?>
<svg id="uuid-baba04e2-e411-43a5-a612-4578290a8f83" data-name="34x34 Night" xmlns="http://www.w3.org/2000/svg" viewBox="0 0 34 34">
  <g>
    <path d="M18.67,9.33c-3.15,0-5.76,2.31-6.24,5.32-.6-.37-1.32-.59-2.07-.59-2.21,0-3.99,1.78-3.99,3.99,0,1.72,1.06,3.17,2.58,3.72h11.21c2.77-.67,4.83-3.15,4.83-6.13,0-3.48-2.83-6.32-6.32-6.32Z" fill="#d0d6db"/>
    <path d="M18.67,7.93c-3.23,0-6.03,1.96-7.17,4.86-.37-.08-.75-.12-1.14-.12-2.97,0-5.39,2.42-5.39,5.39,0,2.24,1.41,4.27,3.5,5.04l.23.09h11.63l.16-.04c3.47-.84,5.9-3.92,5.9-7.49,0-4.26-3.46-7.72-7.72-7.72ZM8.95,21.78c-1.52-.56-2.58-2.01-2.58-3.72,0-2.21,1.78-3.99,3.99-3.99.76,0,1.48.21,2.07.59.48-3.01,3.09-5.32,6.24-5.32,3.48,0,6.32,2.83,6.32,6.32,0,2.98-2.06,5.47-4.83,6.13h-11.21Z" fill="#303f4a"/>
  </g>
  <g>
    <path d="M23.74,17.01c-1.94,0-3.54,1.42-3.84,3.27-.37-.23-.81-.36-1.28-.36-1.36,0-2.46,1.1-2.46,2.46,0,1.06.65,1.95,1.59,2.29h6.9c1.7-.41,2.97-1.94,2.97-3.77,0-2.14-1.74-3.89-3.89-3.89Z" fill="#d0d6db"/>
    <path d="M23.74,15.61c-2.07,0-3.87,1.17-4.74,2.93-.12-.01-.25-.02-.38-.02-2.13,0-3.86,1.73-3.86,3.86,0,1.6,1.01,3.05,2.5,3.61l.23.09h7.32l.16-.04c2.38-.57,4.04-2.68,4.04-5.13,0-2.92-2.37-5.29-5.29-5.29ZM17.76,24.67c-.93-.34-1.59-1.24-1.59-2.29,0-1.36,1.1-2.46,2.46-2.46.47,0,.91.13,1.28.36.29-1.85,1.9-3.27,3.84-3.27,2.14,0,3.89,1.74,3.89,3.89,0,1.83-1.27,3.36-2.97,3.77h-6.9Z" fill="#303f4a"/>
  </g>
</svg>